# xmcd
#
# Track frame offsets:
# 150
# 10935
# 25087
# 33842
# 47275
# 60822
# 71155
# 81680
# 93537
# 109800
# 117512
# 131120
# 136672
# 155150
# 166945
# 181675
#
# Disc length: 2559 seconds
#
#
# Revision: 4
# Processed by: cddbd v1.5.2PL0 Copyright (c) Steve Scherf et al.
# Submitted via: FreeRIP 2.951 
#
DISCID=ce09fd10
DTITLE=Various Artist - This is country [CD 2/4)
DYEAR=1900
DGENRE=Country
TTITLE0=Patsy Cline - Stop, Look and Listen
TTITLE1=Freddy Fender - Wasted Days and Wasted Nights
TTITLE2=Patsy Cline - Come On In and Make Youself at Home
TTITLE3=Kenny Rogers - Shine on Ruby Mountain
TTITLE4=Federation - Cowboy Reggae
TTITLE5=Rick Nelson - Hello Mary Lou, Goodbye Heart
TTITLE6=Kenny Rogers - Ticket to Nowhere
TTITLE7=Tina Turner - Stand by Your Man
TTITLE8=Lynn Anderson - The Devil Went Down to Georgia
TTITLE9=Jim Reeves - Oklahoma Hills
TTITLE10=Lynn Anderson - Talking In Your Sleep
TTITLE11=Willie Nelson - The Ghost
TTITLE12=Federation - Clear Road
TTITLE13=Rick Nelson - Fools Rush In
TTITLE14=Tina Turner - Good Hearted Woman
TTITLE15=Frankie Laine - I Believe
EXTD=
EXTT0=
EXTT1=
EXTT2=
EXTT3=
EXTT4=
EXTT5=
EXTT6=
EXTT7=
EXTT8=
EXTT9=
EXTT10=
EXTT11=
EXTT12=
EXTT13=
EXTT14=
EXTT15=
PLAYORDER=
